<?xml version="1.0"?>
<svg xmlns="http://www.w3.org/2000/svg" id="Outline" viewBox="0 0 512 512" width="512" height="512"><path d="M445.4,76.359,339.922,17.027l0,.006a7.988,7.988,0,0,0-5.488-.878C334.039,16.233,294.759,24,256,24c-38.7,0-78.04-7.767-78.432-7.845a7.991,7.991,0,0,0-5.486.879l0-.007L66.6,76.359a48.083,48.083,0,0,0-24.279,46.086L72,456.356V488a8,8,0,0,0,8,8h72a8,8,0,0,0,8-8V408H352v80a8,8,0,0,0,8,8h72a8,8,0,0,0,8-8V456.356l29.681-333.911A48.083,48.083,0,0,0,445.4,76.359ZM256,40c25.269,0,50.242-3.071,65.779-5.446l-7.368,14.735C306.917,51.29,286.082,56,256,56s-50.927-4.712-58.411-6.711l-7.368-14.735C205.758,36.929,230.731,40,256,40ZM88,480V464h56v16Zm280,0V464h56v16Zm85.744-358.971L424.68,448H368V408h16a8,8,0,0,0,8-8V224.878l15.81-71.143-15.62-3.47-9.734,43.805-6.867-20.6-15.178,5.06L376,225.3V392H136V225.3l15.589-46.768-15.178-5.06-6.867,20.6-9.734-43.805-15.62,3.47L120,224.878V400a8,8,0,0,0,8,8h16v40H87.32L58.256,121.029A32.056,32.056,0,0,1,74.442,90.305L172.6,35.091l12.244,24.487a8,8,0,0,0,4.625,4.012c.961.32,22.5,7.358,58.53,8.3V112h16V71.893c36.03-.945,57.569-7.983,58.53-8.3a8,8,0,0,0,4.625-4.012L339.4,35.091l98.159,55.214A32.056,32.056,0,0,1,453.744,121.029Z"/></svg>
