<svg height="512pt" viewBox="-84 0 512 512" width="512pt" xmlns="http://www.w3.org/2000/svg"><path d="m86.613281 276.230469v14.128906c0 4.144531 3.359375 7.5 7.5 7.5s7.5-3.355469 7.5-7.5v-14.128906c0-4.140625-3.359375-7.5-7.5-7.5s-7.5 3.359375-7.5 7.5zm0 0"/><path d="m257.753906 290.359375v-14.128906c0-4.140625-3.355468-7.5-7.5-7.5-4.140625 0-7.5 3.359375-7.5 7.5v14.128906c0 4.144531 3.359375 7.5 7.5 7.5 4.144532 0 7.5-3.355469 7.5-7.5zm0 0"/><path d="m172.183594 305.402344c9.675781 0 18.757812-4.042969 24.917968-11.089844 2.726563-3.117188 2.40625-7.855469-.710937-10.582031-3.117187-2.726563-7.855469-2.410157-10.585937.710937-3.308594 3.789063-8.273438 5.960938-13.621094 5.960938-5.34375 0-10.308594-2.171875-13.621094-5.960938-2.726562-3.121094-7.464844-3.4375-10.582031-.710937-3.121094 2.726562-3.4375 7.464843-.710938 10.582031 6.160157 7.046875 15.242188 11.089844 24.914063 11.089844zm0 0"/><path d="m19.242188 367.710938c-7.355469 23.390624-17.429688 55.421874-19.039063 118.949218-.347656 13.722656 11.035156 25.339844 24.738281 25.339844h57.125c4.140625 0 7.5-3.359375 7.5-7.5s-3.359375-7.5-7.5-7.5c0 0-57.066406 0-57.125 0-5.394531 0-9.878906-4.558594-9.742187-9.957031 1.554687-61.417969 11.265625-92.289063 18.351562-114.832031 7.113281-22.613282 12.253907-38.953126 3.617188-68.421876-.023438-.074218-.046875-.152343-.074219-.226562-29.359375-89.417969-23.378906-114.382812-16.457031-143.296875 3.371093-14.070313 6.855469-28.621094 6.855469-50.96875v-83.371094c0-6.023437 4.898437-10.925781 10.921874-10.925781h33.957032v48.886719c0 55.039062 44.777344 99.8125 99.8125 99.8125 17.914062 0 35.671875-4.894531 51.070312-14.042969 3.558594-2.125 4.722656-6.726562 2.601563-10.285156-2.09375-3.507813-6.769531-4.695313-10.285157-2.597656-12.921874 7.710937-28.199218 11.925781-43.386718 11.925781-46.765625 0-84.8125-38.046875-84.8125-84.8125v-24.625c1.867187 2.792969 3.9375 5.652343 6.226562 8.515625 20.078125 25.128906 47.253906 38.414062 78.585938 38.414062 31.332031 0 58.507812-13.285156 78.589844-38.414062 2.285156-2.863282 4.355468-5.722656 6.226562-8.515625v24.625c0 20.167969-7.207031 39.714843-20.289062 55.035156-2.648438 3.105469-2.265626 7.925781.835937 10.574219 3.082031 2.636718 7.933594 2.257812 10.574219-.835938 15.269531-17.890625 23.878906-41.25 23.878906-64.773437v-48.886719h33.953125c6.023437 0 10.925781 4.898438 10.925781 10.925781v83.371094c0 22.347656 3.484375 36.898437 6.851563 50.96875 6.921875 28.910156 12.902343 53.878906-16.457031 143.292969-.023438.078125-.050782.15625-.070313.230468-8.636719 29.46875-3.5 45.808594 3.613281 68.421876 7.089844 22.542968 16.800782 53.410156 18.355469 114.828124.136719 5.402344-4.363281 9.960938-9.742187 9.960938h-207.363282c-4.140625 0-7.5 3.359375-7.5 7.5s3.359375 7.5 7.5 7.5h207.359375c13.703125 0 25.085938-11.652344 24.738281-25.339844-1.609374-63.523437-11.683593-95.558594-19.039062-118.949218-7.007812-22.28125-10.875-34.570313-3.5625-59.589844 30.640625-93.355469 23.894531-121.527344 16.753906-151.347656-3.164062-13.226563-6.4375-26.898438-6.4375-47.476563v-83.371094c0-14.296875-11.628906-25.925781-25.925781-25.925781 0 0-41.429687 0-41.453125 0-3.390625 0-6.039062 2.28125-7.183594 5.335938-.046875.164062-5.097656 16.601562-18.261718 33.078124-17.378907 21.746094-39.878907 32.777344-66.871094 32.777344-26.820313 0-49.214844-10.898437-66.554688-32.386718-13.292968-16.472657-18.53125-33.3125-18.582031-33.484376-.964844-3.109374-3.90625-5.320312-7.175781-5.320312h-41.457032c-14.292968 0-25.921874 11.628906-25.921874 25.925781v83.371094c0 20.578125-3.277344 34.25-6.441407 47.476563-7.140625 29.820312-13.882812 57.992187 16.757813 151.351562 7.308594 25.015625 3.441406 37.304688-3.566406 59.585938zm0 0"/></svg>